<svg xmlns="http://www.w3.org/2000/svg" version="1.1" xmlns:xlink="http://www.w3.org/1999/xlink" xmlns:svgjs="http://svgjs.dev/svgjs" viewBox="0 0 1920 1080"><rect width="1920" height="1080" fill="#5b6dd9"></rect><g transform="matrix(0.9959292143521045,0.5749999999999998,-0.5749999999999998,0.9959292143521045,314.2378014878277,-525.7676382150412)"><path d="M0,-1080C-8.868799614825312,-996.0195541194125,-73.84152984914765,-740.2624599516105,-53.212797688951866,-576.117324716475C-32.584065528756085,-411.9721894813395,98.41472597556846,-261.0393783432918,123.77239296117472,-95.12918858918724C149.130059946781,70.78100116491731,103.32688335958596,212.4621356565228,98.93320422468571,419.3438138081524C94.53952508978546,626.225491959782,127.48701539838608,964.1045418296897,97.41031815177317,1146.1608803205904C67.33362090516026,1328.2172188114912,-65.29192622969624,1342.7086581403223,-81.52697925499177,1511.6818447535572C-97.7620322802873,1680.6550313667922,-13.587829875831963,2051.946974125593,0,2160L 1920 2160 L 1920 -1080 Z" fill="url(&quot;#SvgjsLinearGradient1224&quot;)"></path><path d="M213.33333333333331,-1080C199.03637042250986,-1000.8694326761033,135.0855088759738,-759.0305178633407,127.55155586839263,-605.2165960566199C120.01760286081144,-451.4026742498991,167.35399495904232,-289.64427682449866,168.12961528784618,-157.11646915967535C168.90523561665003,-24.58866149485206,139.13460417079042,85.13138234467895,132.20527784121566,189.9502499323198C125.27595151164088,294.7691175199606,112.36024840330178,330.6420509209494,126.55365731039754,471.7967363661696C140.74706621749328,612.9514218113899,182.7111446397038,877.7249149641839,217.3657312837902,1036.8783626036413C252.02031792787662,1196.0318102430988,337.84571515621536,1321.9791676572752,334.48117717491596,1426.7174222029143C331.11663919361655,1531.4556767485535,217.36981070292418,1543.094126911295,197.17850339599374,1665.3078898774759C176.9871960890633,1787.5216528436567,210.64086167711005,2077.5513149795793,213.33333333333331,2160L 1920 2160 L 1920 -1080 Z" fill="url(&quot;#SvgjsLinearGradient1225&quot;)"></path><path d="M426.66666666666663,-1080C414.56152895736693,-1030.7735957309255,348.51978959417033,-915.6712228244833,354.0358404108685,-784.6415743855533C359.55189122756667,-653.6119259466234,458.38156993520965,-457.14265141590704,459.7629715668557,-293.8221093664201C461.14437319850174,-130.5015673169331,355.02046252376186,71.3600417408958,362.3242502007446,195.2816779113685C369.6280378777273,319.2033140818412,513.118665111219,312.9556730291399,503.5856976287521,449.7077076564161C494.0527301462851,586.4597422836923,306.0762694851251,846.4050917076543,305.1264453059428,1015.7938856750259C304.1766211267605,1185.1826796423975,477.728472665779,1347.7662589208683,497.8867525536582,1466.0404714606454C518.0450324415374,1584.3146840004226,437.94613894771635,1609.7792394904634,426.0761246332178,1725.4391609136892C414.2061103187192,1841.099082336915,426.56824299442513,2087.573193485615,426.66666666666663,2160L 1920 2160 L 1920 -1080 Z" fill="url(&quot;#SvgjsLinearGradient1226&quot;)"></path><path d="M640,-1080C632.04300692878,-976.5203702635624,580.0188416075813,-690.2651935675063,592.2580415726801,-459.12222158137445C604.4972415377789,-227.97924959524255,686.1750905594688,84.58328790667395,713.4351997905928,306.8578319167915C740.6953090217169,529.132375926909,761.4649566689542,664.348748774584,755.8186969594246,874.5250424793309C750.1724372498951,1084.7013361840777,698.8607576933194,1353.669767891828,679.5576415334153,1567.915594145273C660.2545253735112,1782.1614203987178,646.5929402555693,2061.3192656908786,640,2160L 1920 2160 L 1920 -1080 Z" fill="url(&quot;#SvgjsLinearGradient1227&quot;)"></path><path d="M853.3333333333333,-1080C834.6908102397655,-991.4255854526208,750.4318177530755,-775.2826342350126,741.4781947719264,-548.5535127157247C732.5245717907773,-321.82439119643675,765.4432655058733,56.067947159678994,799.6115954464385,280.37472911572763C833.7799253870037,504.6815110717763,938.8747489871413,612.9149453182279,946.4881744153178,797.287179020567C954.1015998434942,981.6594127229062,860.8179548624945,1159.4893278331901,845.2921480154971,1386.6081313297623C829.7663411684997,1613.7269348263344,851.9931357803606,2031.101355221627,853.3333333333333,2160L 1920 2160 L 1920 -1080 Z" fill="url(&quot;#SvgjsLinearGradient1228&quot;)"></path><path d="M1066.6666666666667,-1080C1055.3775029664089,-991.0964640747005,1000.4491527538287,-776.6194160499841,998.9316844651196,-546.5787844482034C997.4142161764105,-316.5381528464226,1067.0226516696168,56.94693430805884,1057.561856934412,300.24378961068476C1048.101062199207,543.5406449133106,945.5266706079929,714.1951385407874,942.1669160538901,913.2023473675521C938.8071614997873,1112.2095561943167,1016.6533711743323,1286.4874337991982,1037.403329609795,1494.2870425712729C1058.1532880452578,1702.0866513433475,1061.7894438238548,2049.0478404285454,1066.6666666666667,2160L 1920 2160 L 1920 -1080 Z" fill="url(&quot;#SvgjsLinearGradient1229&quot;)"></path><path d="M1280,-1080C1295.4832724181183,-1002.6016944128341,1376.456105787152,-785.6744179651998,1372.8996345087103,-615.610166477005C1369.3431632302686,-445.5459149888102,1288.094366517563,-232.44411113493217,1258.6611723293506,-59.61449107083109C1229.2279781411382,113.21512899326999,1209.4810887235117,267.48196146211285,1196.3004693794362,421.3675539076014C1183.1198500353607,575.25314635309,1150.8266911231385,728.3838463563951,1179.5774562648971,863.6990636021002C1208.3282214066558,999.0142808478053,1354.0143789959097,1109.6699436695985,1368.8050602299886,1233.258857381832C1383.5957414640675,1356.8477710940656,1283.1223870410347,1450.775688772473,1268.32154366937,1605.2325458755008C1253.5207002977052,1759.6894029785287,1278.0535906115617,2067.538757645917,1280,2160L 1920 2160 L 1920 -1080 Z" fill="url(&quot;#SvgjsLinearGradient1230&quot;)"></path><path d="M1493.3333333333333,-1080C1480.4176798089422,-942.8158666025503,1414.049620391529,-509.73579097674246,1415.8394121869867,-256.8951996153014C1417.6292039824443,-4.054608253860351,1475.982419420967,158.45548317685672,1504.0720841060784,437.04354816864634C1532.1617487911897,715.631613160436,1586.1671920931121,1127.4737816968773,1584.3774002976545,1414.6331903354362C1582.5876085021969,1701.7925989739952,1508.5073444940535,2035.7721983892393,1493.3333333333333,2160L 1920 2160 L 1920 -1080 Z" fill="url(&quot;#SvgjsLinearGradient1231&quot;)"></path><path d="M1706.6666666666665,-1080C1704.4653980914281,-1005.7871482610942,1685.9911023479872,-813.356230030162,1693.4590552152367,-634.7228895665653C1700.9270080824863,-456.0895491029686,1767.268210561687,-221.9747503740331,1751.4743838701643,-8.199957218419684C1735.6805571786415,205.57483593719374,1599.3334472617616,459.5639859249302,1598.6960950661003,647.9258693671152C1598.058742870439,836.2877528093002,1718.4018726093261,975.4403192204752,1747.6502706961955,1121.97134343469C1776.898668783065,1268.5023676489047,1781.0170842589048,1354.1072385581854,1774.1864835873166,1527.1120146524038C1767.3558829157284,1700.1167907466222,1717.9199694867748,2054.518669108734,1706.6666666666665,2160L 1920 2160 L 1920 -1080 Z" fill="url(&quot;#SvgjsLinearGradient1232&quot;)"></path></g><defs><linearGradient x1="0.1" y1="0" x2="0" y2="1" id="SvgjsLinearGradient1224"><stop stop-color="#5b6dd9" offset="0"></stop><stop stop-color="#5b82d9" offset="0"></stop></linearGradient><linearGradient x1="0.1" y1="0" x2="0" y2="1" id="SvgjsLinearGradient1225"><stop stop-color="#465ad4" offset="0"></stop><stop stop-color="#4672d4" offset="0.1111111111111111"></stop></linearGradient><linearGradient x1="0.1" y1="0" x2="0" y2="1" id="SvgjsLinearGradient1226"><stop stop-color="#3148cf" offset="0"></stop><stop stop-color="#3162cf" offset="0.2222222222222222"></stop></linearGradient><linearGradient x1="0.1" y1="0" x2="0" y2="1" id="SvgjsLinearGradient1227"><stop stop-color="#2b40bb" offset="0"></stop><stop stop-color="#2b58bb" offset="0.3333333333333333"></stop></linearGradient><linearGradient x1="0.1" y1="0" x2="0" y2="1" id="SvgjsLinearGradient1228"><stop stop-color="#2739a6" offset="0"></stop><stop stop-color="#274ea6" offset="0.4444444444444444"></stop></linearGradient><linearGradient x1="0.1" y1="0" x2="0" y2="1" id="SvgjsLinearGradient1229"><stop stop-color="#223291" offset="0"></stop><stop stop-color="#224491" offset="0.5555555555555556"></stop></linearGradient><linearGradient x1="0.1" y1="0" x2="0" y2="1" id="SvgjsLinearGradient1230"><stop stop-color="#1d2b7d" offset="0"></stop><stop stop-color="#1d3b7d" offset="0.6666666666666666"></stop></linearGradient><linearGradient x1="0.1" y1="0" x2="0" y2="1" id="SvgjsLinearGradient1231"><stop stop-color="#182368" offset="0"></stop><stop stop-color="#183068" offset="0.7777777777777778"></stop></linearGradient><linearGradient x1="0.1" y1="0" x2="0" y2="1" id="SvgjsLinearGradient1232"><stop stop-color="#131c53" offset="0"></stop><stop stop-color="#132753" offset="0.8888888888888888"></stop></linearGradient></defs></svg>