<svg xmlns="http://www.w3.org/2000/svg" version="1.1" xmlns:xlink="http://www.w3.org/1999/xlink" xmlns:svgjs="http://svgjs.dev/svgjs" viewBox="0 0 1920 1080"><rect width="1920" height="1080" fill="#5b6dd9"></rect><g transform="matrix(0.9959292143521045,0.5749999999999998,-0.5749999999999998,0.9959292143521045,314.22168279538573,-523.4908668603657)"><path d="M0,-1080C10.266840379202245,-1003.0049500920372,43.3496763273147,-744.5644193416786,61.60104227521347,-618.0297005522234C79.85240822311225,-491.4949817627683,101.28288274609915,-451.8256421821997,109.50819568739269,-320.79168726326935C117.73350862868622,-189.757732344339,132.80208589442768,30.441608254723945,110.9529199229747,168.17402896135874C89.10375395152174,305.90644966799357,-12.239644722340154,391.2947173974598,-21.586800141325114,505.6028369765395C-30.933955560310075,619.9109565556191,64.83088285214039,717.9900040581791,54.86998740906495,854.0227464358368C44.90909196598951,990.0554888134944,-60.12363429260823,1164.91229072206,-81.35217279977775,1321.7992912424852C-102.58071130694726,1478.6862917629103,-86.05993910058179,1655.6446314321354,-72.50124363395216,1795.3447495583878C-58.942548167322535,1935.0448676846402,-12.083540605658692,2099.224124926398,0,2160L 1920 2160 L 1920 -1080 Z" fill="url(&quot;#SvgjsLinearGradient1215&quot;)"></path><path d="M213.33333333333331,-1080C196.60028884714927,-1020.214291529043,109.45514349875668,-895.2160476446509,112.93506641622915,-721.2857491742576C116.41498933370161,-547.3554507038643,235.94930948861514,-222.30511460782716,234.21287083816813,-36.41820917764056C232.47643218772112,149.46869625254604,89.62889435110122,244.28136667661332,102.51643451354713,394.03568340686195C115.40397467599303,543.7900001371106,301.9997729830427,707.5895081552025,311.53811181284357,862.1076912038511C321.07645064264443,1016.6258742524998,190.1881952340835,1202.8572429372387,159.74646749235245,1321.144781698754C129.3047397506214,1439.4323204602695,119.95660105562702,1432.023720722736,128.88774536245717,1571.8329237729436C137.8188896692873,1711.642126823151,199.25906867152062,2061.9721539621573,213.33333333333331,2160L 1920 2160 L 1920 -1080 Z" fill="url(&quot;#SvgjsLinearGradient1216&quot;)"></path><path d="M426.66666666666663,-1080C444.5853738083253,-968.9584330559712,517.8433814165405,-638.5857524296598,534.1789095166185,-413.750598335827C550.5144376166966,-188.9154442419942,550.5587270631172,50.448123867778236,524.6798352671344,269.0109245629968C498.8009434711516,487.5737252582154,401.7842269609395,703.7537715220896,378.90555874072163,897.6262058354846C356.02689052050374,1091.4986401488795,379.44764129150286,1221.8498980826143,387.407825945827,1432.245530443367C395.3680106001512,1642.6411628041196,420.1235265465267,2038.7075884072278,426.66666666666663,2160L 1920 2160 L 1920 -1080 Z" fill="url(&quot;#SvgjsLinearGradient1217&quot;)"></path><path d="M640,-1080C626.6700653665056,-929.7760465292671,551.222339952561,-460.0799121066834,560.0203921990337,-178.65627917560235C568.8184444455064,102.76735375547875,679.0793509719117,359.1211100300412,692.7883134788365,608.5417975864866C706.4972759857612,857.962485142932,651.072219487055,1059.291479094151,642.2741672405823,1317.86784616307C633.4761149941096,1576.444213231989,640.3790278734303,2019.6446410271783,640,2160L 1920 2160 L 1920 -1080 Z" fill="url(&quot;#SvgjsLinearGradient1218&quot;)"></path><path d="M853.3333333333333,-1080C859.659463910385,-994.6798411756862,884.4378862082364,-734.5167186933008,891.2901167956443,-568.0790470541172C898.1423473830522,-401.64137541493346,910.5630239271005,-225.4516612597835,894.4467168577805,-81.37397016489757C878.3304097884605,62.70372092998835,813.7799108743067,147.3846535493399,794.5922743797242,296.38709951519826C775.4046378851418,445.38954548105664,749.6114673181592,673.782588627255,779.320897890286,812.6407056302526C809.0303284624129,951.4988226332501,963.8337554550985,997.5342277389432,972.8488578124854,1129.535801533184C981.8639601698724,1261.5373753274248,853.3307661144661,1432.906115317895,833.4115120346074,1604.6501483956977C813.4922579547488,1776.3941814735003,850.0130297835456,2067.4416913992827,853.3333333333333,2160L 1920 2160 L 1920 -1080 Z" fill="url(&quot;#SvgjsLinearGradient1219&quot;)"></path><path d="M1066.6666666666667,-1080C1079.7381596908683,-941.2401215198172,1166.2664471979035,-505.6777484645768,1145.0956248118764,-247.44072911890288C1123.9248024258493,10.79629022677102,967.8375748960345,210.18278615582392,939.6417323505036,469.42211607404334C911.4458898049727,728.6614459922628,954.749747152664,1026.2322697360873,975.9205695386912,1307.9952503904135C997.0913919247184,1589.7582310447397,1051.5423171453374,2017.9992083984023,1066.6666666666667,2160L 1920 2160 L 1920 -1080 Z" fill="url(&quot;#SvgjsLinearGradient1220&quot;)"></path><path d="M1280,-1080C1260.5623392162659,-974.3507322637595,1154.890339724857,-609.3202478068889,1163.3740352975956,-446.1043935825566C1171.857730870334,-282.8885393582243,1298.4644391038635,-261.85640976498587,1330.9021734364305,-100.70487465400643C1363.3399077689976,60.446660456973035,1384.6336381229,307.46623948246884,1358.0004412929977,520.8048170833201C1331.3672444630954,734.1433946841714,1176.4072185234534,993.3854441079031,1171.102992457017,1179.3265909511015C1165.7987663905808,1365.2677377942998,1308.0255836372162,1473.0061299676938,1326.17508489438,1636.4516981425102C1344.3245861515438,1799.8972663173265,1287.6958474823966,2072.7419496904186,1280,2160L 1920 2160 L 1920 -1080 Z" fill="url(&quot;#SvgjsLinearGradient1221&quot;)"></path><path d="M1493.3333333333333,-1080C1495.656645190759,-972.2092595058759,1487.1152775939868,-600.9458165911412,1507.2732044778875,-433.2555570352554C1527.4311313617882,-265.5652974793695,1598.3226815447451,-215.6307043353286,1614.2808946367368,-73.85844266468482C1630.2391077287284,67.91381900595897,1616.97167053514,230.02689605722753,1603.0224830298366,417.37801298860734C1589.0732955245333,604.7291299199871,1532.4056248154582,857.4406229121779,1530.5857696049168,1050.248258923594C1528.7659143943754,1243.0558949350102,1598.3120911451851,1389.2652055443696,1592.1033517665878,1574.223829057104C1585.8946123879905,1759.1824525698385,1509.795003072209,2062.370638176184,1493.3333333333333,2160L 1920 2160 L 1920 -1080 Z" fill="url(&quot;#SvgjsLinearGradient1222&quot;)"></path><path d="M1706.6666666666665,-1080C1723.011335436056,-970.1486762898921,1806.6526390885704,-597.9518393821504,1804.734679283004,-420.892057739353C1802.8167194774376,-243.8322760965556,1703.879164101785,-190.50326097595968,1695.1589078332681,-17.641310143215634C1686.4386515647514,155.2206406895284,1746.0302833480234,441.7678345504162,1752.4131416719038,616.2796472571113C1758.795999995784,790.7914599638063,1760.4385807260755,855.9774753594719,1733.45605777655,1029.4295660969547C1706.4735348270247,1202.8816568344375,1594.982902493065,1468.5637860315005,1590.518003974751,1656.992191682008C1586.0531054564372,1845.4205973325156,1687.308556218014,2076.1653652803348,1706.6666666666665,2160L 1920 2160 L 1920 -1080 Z" fill="url(&quot;#SvgjsLinearGradient1223&quot;)"></path></g><defs><linearGradient x1="0.1" y1="0" x2="0" y2="1" id="SvgjsLinearGradient1215"><stop stop-color="#5b6dd9" offset="0"></stop><stop stop-color="#5b82d9" offset="0"></stop></linearGradient><linearGradient x1="0.1" y1="0" x2="0" y2="1" id="SvgjsLinearGradient1216"><stop stop-color="#7483df" offset="0"></stop><stop stop-color="#7495df" offset="0.1111111111111111"></stop></linearGradient><linearGradient x1="0.1" y1="0" x2="0" y2="1" id="SvgjsLinearGradient1217"><stop stop-color="#8d9ae5" offset="0"></stop><stop stop-color="#8da9e5" offset="0.2222222222222222"></stop></linearGradient><linearGradient x1="0.1" y1="0" x2="0" y2="1" id="SvgjsLinearGradient1218"><stop stop-color="#a6b0ea" offset="0"></stop><stop stop-color="#a6bbea" offset="0.3333333333333333"></stop></linearGradient><linearGradient x1="0.1" y1="0" x2="0" y2="1" id="SvgjsLinearGradient1219"><stop stop-color="#bfc6f0" offset="0"></stop><stop stop-color="#bfcef0" offset="0.4444444444444444"></stop></linearGradient><linearGradient x1="0.1" y1="0" x2="0" y2="1" id="SvgjsLinearGradient1220"><stop stop-color="#d8ddf6" offset="0"></stop><stop stop-color="#d8e2f6" offset="0.5555555555555556"></stop></linearGradient><linearGradient x1="0.1" y1="0" x2="0" y2="1" id="SvgjsLinearGradient1221"><stop stop-color="#f2f3fc" offset="0"></stop><stop stop-color="#f2f5fc" offset="0.6666666666666666"></stop></linearGradient><linearGradient x1="0.1" y1="0" x2="0" y2="1" id="SvgjsLinearGradient1222"><stop stop-color="#ffffff" offset="0"></stop><stop stop-color="#ffffff" offset="0.7777777777777778"></stop></linearGradient><linearGradient x1="0.1" y1="0" x2="0" y2="1" id="SvgjsLinearGradient1223"><stop stop-color="#ffffff" offset="0"></stop><stop stop-color="#ffffff" offset="0.8888888888888888"></stop></linearGradient></defs></svg>